<svg width="18" height="24" viewBox="0 0 18 24" fill="none" xmlns="http://www.w3.org/2000/svg">
<path d="M9.82376 0.855469L0.7829 9.95899C0.417194 10.3321 0.212402 10.8334 0.212402 11.3554C0.212402 11.8775 0.417194 12.3787 0.7829 12.7518C0.960902 12.9398 1.17543 13.0895 1.41337 13.1918C1.6513 13.2941 1.90764 13.3468 2.1667 13.3468C2.42577 13.3468 2.68211 13.2941 2.92004 13.1918C3.15798 13.0895 3.37251 12.9398 3.55051 12.7518L6.52643 9.78072C7.27729 9.02916 8.29491 8.60382 9.35812 8.59714C10.4213 8.59046 11.4442 9.00299 12.2045 9.74507L12.2343 9.78072C12.9924 10.5442 13.4178 11.5757 13.4178 12.6508C13.4178 13.7259 12.9924 14.7575 12.2343 15.5209L4.06237 23.7331C4.62997 23.816 5.20285 23.8577 5.7765 23.8579C8.54938 23.8216 11.2226 22.82 13.3346 21.0258C15.4466 19.2316 16.865 16.7575 17.3447 14.0306C17.8245 11.3038 17.3357 8.49519 15.9626 6.08978C14.5895 3.68437 12.4182 1.83307 9.82376 0.855469Z" fill="#468459"/>
</svg>
