<svg width="18" height="24" viewBox="0 0 18 24" fill="none" xmlns="http://www.w3.org/2000/svg">
<path d="M16.7637 14.0653L7.69903 23.145C5.10062 22.1655 2.92707 20.3097 1.55469 17.8989C0.182309 15.4881 -0.302494 12.6741 0.184215 9.94403C0.670924 7.21397 2.0985 4.73977 4.21979 2.9498C6.34107 1.15982 9.02251 0.166775 11.7998 0.142578C12.3715 0.142522 12.9424 0.184229 13.508 0.267365L5.30043 8.46172C4.92252 8.83941 4.62283 9.28771 4.41846 9.78104C4.21408 10.2744 4.10904 10.803 4.10931 11.3369C4.10987 12.4151 4.5394 13.4489 5.30341 14.2108C6.06741 14.9728 7.10332 15.4006 8.18323 15.4C9.26314 15.3995 10.2986 14.9706 11.0618 14.2079L14.0377 11.2368C14.4057 10.8721 14.9031 10.6674 15.4215 10.6674C15.94 10.6674 16.4374 10.8721 16.8054 11.2368C16.9907 11.4216 17.1378 11.6412 17.2381 11.8828C17.3384 12.1245 17.3901 12.3835 17.3901 12.6451C17.3901 12.9066 17.3384 13.1657 17.2381 13.4073C17.1378 13.649 16.9907 13.8685 16.8054 14.0534L16.7637 14.0653Z" fill="#468459"/>
</svg>
